<svg xmlns="http://www.w3.org/2000/svg" viewBox="0 0 74.5 73.03">
  <defs>
    <style>
      .cls-1 { fill: rgb(255,112,92); }
      .cls-2 { fill: #fff; }
    </style>
  </defs>
  <title>Recurso 268</title>
  <g id="Capa_2" data-name="Capa 2">
    <g id="Capa_1-2" data-name="Capa 1">
      <rect class="cls-1" width="74.5" height="73.03" rx="16.46"/>
      <path class="cls-2" d="M19.53,29.44H47.88V40.05h3.54V27.66a0,0,0,0,0,0,0,1.53,1.53,0,0,0-.12-.6l-.06-.14a2.12,2.12,0,0,0-.11-.21L44,16.05a1.78,1.78,0,0,0-1.48-.79H24.85a1.78,1.78,0,0,0-1.48.79L16.29,26.68a1,1,0,0,0-.1.21.91.91,0,0,0-.07.14,1.53,1.53,0,0,0-.12.6,0,0,0,0,0,0,0V48.92a1.78,1.78,0,0,0,1.77,1.78h23V47.15H19.53Zm26.81-3.55H35.48V18.81h6.14ZM25.8,18.81h6.13v7.08H21.07Z"/>
      <polygon class="cls-2" points="58.51 48.91 53.19 48.91 53.19 43.6 49.65 43.6 49.65 48.91 44.34 48.91 44.34 52.46 49.65 52.46 49.65 57.77 53.19 57.77 53.19 52.46 58.51 52.46 58.51 48.91"/>
    </g>
  </g>
</svg>
